<mxfile host="app.diagrams.net" agent="Mozilla/5.0 (Windows NT 10.0; Win64; x64) AppleWebKit/537.36 (KHTML, like Gecko) Chrome/133.0.0.0 Safari/537.36" version="26.0.11">
  <diagram name="Page-1" id="I3cmU1iauxSUeg4suDYM">
    <mxGraphModel dx="1434" dy="790" grid="1" gridSize="10" guides="1" tooltips="1" connect="1" arrows="1" fold="1" page="1" pageScale="1" pageWidth="850" pageHeight="1100" math="0" shadow="0">
      <root>
        <mxCell id="0" />
        <mxCell id="1" parent="0" />
        <mxCell id="_vTqPZ2Y8xfd6fUzxJdi-7" value="" style="rounded=1;whiteSpace=wrap;html=1;" parent="1" vertex="1">
          <mxGeometry x="170" y="140" width="620" height="400" as="geometry" />
        </mxCell>
        <mxCell id="xUjRbMkwW3MI90bZYQ0f-2" value="VPC" style="sketch=0;outlineConnect=0;gradientColor=none;html=1;whiteSpace=wrap;fontSize=12;fontStyle=0;shape=mxgraph.aws4.group;grIcon=mxgraph.aws4.group_vpc;strokeColor=#879196;fillColor=none;verticalAlign=top;align=left;spacingLeft=30;fontColor=#879196;dashed=0;" vertex="1" parent="1">
          <mxGeometry x="190" y="193.5" width="550" height="245" as="geometry" />
        </mxCell>
        <mxCell id="_vTqPZ2Y8xfd6fUzxJdi-1" value="" style="outlineConnect=0;dashed=0;verticalLabelPosition=bottom;verticalAlign=top;align=center;html=1;shape=mxgraph.aws3.traditional_server;fillColor=#7D7C7C;gradientColor=none;" parent="1" vertex="1">
          <mxGeometry x="236.75" y="340" width="46.5" height="63" as="geometry" />
        </mxCell>
        <mxCell id="_vTqPZ2Y8xfd6fUzxJdi-2" value="" style="outlineConnect=0;dashed=0;verticalLabelPosition=bottom;verticalAlign=top;align=center;html=1;shape=mxgraph.aws3.traditional_server;fillColor=#7D7C7C;gradientColor=none;" parent="1" vertex="1">
          <mxGeometry x="436.75" y="203.5" width="46.5" height="63" as="geometry" />
        </mxCell>
        <mxCell id="_vTqPZ2Y8xfd6fUzxJdi-3" value="" style="outlineConnect=0;dashed=0;verticalLabelPosition=bottom;verticalAlign=top;align=center;html=1;shape=mxgraph.aws3.traditional_server;fillColor=#7D7C7C;gradientColor=none;" parent="1" vertex="1">
          <mxGeometry x="441.75" y="350" width="46.5" height="63" as="geometry" />
        </mxCell>
        <mxCell id="_vTqPZ2Y8xfd6fUzxJdi-4" value="" style="outlineConnect=0;dashed=0;verticalLabelPosition=bottom;verticalAlign=top;align=center;html=1;shape=mxgraph.aws3.traditional_server;fillColor=#7D7C7C;gradientColor=none;" parent="1" vertex="1">
          <mxGeometry x="630" y="350" width="46.5" height="63" as="geometry" />
        </mxCell>
        <mxCell id="_vTqPZ2Y8xfd6fUzxJdi-5" value="" style="outlineConnect=0;dashed=0;verticalLabelPosition=bottom;verticalAlign=top;align=center;html=1;shape=mxgraph.aws3.traditional_server;fillColor=#990000;gradientColor=none;" parent="1" vertex="1">
          <mxGeometry x="800" y="147" width="46.5" height="63" as="geometry" />
        </mxCell>
        <mxCell id="_vTqPZ2Y8xfd6fUzxJdi-6" value="" style="outlineConnect=0;dashed=0;verticalLabelPosition=bottom;verticalAlign=top;align=center;html=1;shape=mxgraph.aws3.traditional_server;fillColor=#7D7C7C;gradientColor=none;" parent="1" vertex="1">
          <mxGeometry x="636.75" y="203.5" width="46.5" height="63" as="geometry" />
        </mxCell>
        <mxCell id="_vTqPZ2Y8xfd6fUzxJdi-8" value="VULTURE&lt;div&gt;&lt;br&gt;&lt;/div&gt;" style="text;html=1;align=center;verticalAlign=middle;whiteSpace=wrap;rounded=0;" parent="1" vertex="1">
          <mxGeometry x="230" y="163.5" width="60" height="30" as="geometry" />
        </mxCell>
        <mxCell id="_vTqPZ2Y8xfd6fUzxJdi-10" value="Elastic &amp;amp; kebana" style="text;html=1;align=center;verticalAlign=middle;whiteSpace=wrap;rounded=0;" parent="1" vertex="1">
          <mxGeometry x="435" y="273" width="60" height="30" as="geometry" />
        </mxCell>
        <mxCell id="_vTqPZ2Y8xfd6fUzxJdi-11" value="Windows Server" style="text;html=1;align=center;verticalAlign=middle;whiteSpace=wrap;rounded=0;" parent="1" vertex="1">
          <mxGeometry x="230" y="403" width="60" height="30" as="geometry" />
        </mxCell>
        <mxCell id="_vTqPZ2Y8xfd6fUzxJdi-15" value="Ticket server" style="text;html=1;align=center;verticalAlign=middle;whiteSpace=wrap;rounded=0;" parent="1" vertex="1">
          <mxGeometry x="623.25" y="273" width="60" height="30" as="geometry" />
        </mxCell>
        <mxCell id="_vTqPZ2Y8xfd6fUzxJdi-16" value="C2 server&lt;div&gt;&lt;br&gt;&lt;/div&gt;" style="text;html=1;align=center;verticalAlign=middle;whiteSpace=wrap;rounded=0;" parent="1" vertex="1">
          <mxGeometry x="800" y="220" width="60" height="30" as="geometry" />
        </mxCell>
        <mxCell id="xUjRbMkwW3MI90bZYQ0f-8" value="Fleet Server&lt;div&gt;&lt;br&gt;&lt;/div&gt;" style="text;html=1;align=center;verticalAlign=middle;whiteSpace=wrap;rounded=0;" vertex="1" parent="1">
          <mxGeometry x="435" y="413" width="60" height="30" as="geometry" />
        </mxCell>
        <mxCell id="xUjRbMkwW3MI90bZYQ0f-9" value="Ubuntu Server" style="text;html=1;align=center;verticalAlign=middle;whiteSpace=wrap;rounded=0;" vertex="1" parent="1">
          <mxGeometry x="623.25" y="403" width="60" height="30" as="geometry" />
        </mxCell>
      </root>
    </mxGraphModel>
  </diagram>
</mxfile>
